<?xml version="1.0" standalone="no"?>
<!DOCTYPE svg PUBLIC "-//W3C//DTD SVG 20010904//EN"
 "http://www.w3.org/TR/2001/REC-SVG-20010904/DTD/svg10.dtd">
<svg version="1.0" xmlns="http://www.w3.org/2000/svg"
 width="1080.000000pt" height="1080.000000pt" viewBox="0 0 1080.000000 1080.000000"
 preserveAspectRatio="xMidYMid meet">

<g transform="translate(0.000000,1080.000000) scale(0.100000,-0.100000)"
fill="#000000" stroke="none">
<path d="M7270 5635 l0 -2685 530 0 530 0 0 2685 0 2685 -530 0 -530 0 0
-2685z"/>
<path d="M2450 5440 l0 -2800 550 0 550 1 0 907 c1 802 3 905 16 887 8 -11 55
-76 104 -145 177 -246 318 -398 503 -542 214 -165 453 -286 715 -362 141 -41
170 -43 228 -17 87 40 120 149 71 233 -14 24 -36 50 -50 57 -13 7 -32 30 -41
52 -23 53 -61 76 -164 104 -333 89 -655 281 -865 515 -150 167 -290 458 -351
731 -105 472 -14 974 251 1380 24 37 49 72 57 78 9 8 49 8 137 2 l124 -9 22
26 c13 15 23 30 23 34 0 11 42 79 47 75 2 -2 12 -75 22 -162 11 -86 24 -162
30 -168 13 -13 32 33 81 186 19 59 37 104 40 100 4 -5 15 -60 24 -123 27 -183
27 -181 43 -178 14 3 37 67 79 223 8 33 19 63 23 68 4 4 13 -46 20 -110 18
-174 22 -193 37 -193 8 0 35 32 60 70 l47 70 73 0 74 0 0 -75 0 -75 -102 0
c-84 0 -109 -4 -135 -20 -70 -42 -63 -151 11 -187 28 -13 36 -23 36 -43 0 -14
7 -35 15 -46 12 -16 14 -71 15 -314 0 -162 5 -326 10 -365 14 -95 53 -173 149
-299 l81 -106 0 -99 c0 -92 2 -102 25 -130 14 -16 34 -33 44 -36 24 -7 29 -29
46 -205 22 -239 71 -363 222 -565 219 -293 413 -396 723 -382 150 6 234 34
403 134 148 89 304 209 435 337 l93 91 -3 449 -3 449 -35 -83 c-64 -152 -186
-338 -310 -472 -65 -70 -68 -72 -94 -60 -15 7 -39 9 -53 6 -20 -6 -24 -3 -21
12 2 13 13 18 42 18 25 1 43 7 49 18 16 24 -8 48 -49 48 -47 0 -43 16 6 24 53
8 71 39 35 62 -14 9 -36 14 -50 12 -17 -4 -25 -1 -25 8 0 9 11 14 28 14 77 0
80 62 3 68 -53 4 -59 32 -5 32 41 0 74 15 74 34 0 23 -36 46 -73 46 -29 0 -37
4 -37 18 0 16 13 17 161 14 151 -3 161 -2 157 15 -3 16 -19 19 -168 24 -177 7
-192 4 -192 -42 0 -13 0 -37 0 -54 1 -16 1 -43 1 -60 0 -16 2 -57 5 -90 4 -33
6 -85 5 -115 -3 -86 0 -193 6 -216 4 -17 -6 -30 -43 -58 l-47 -37 -3 365 c-2
358 -3 366 -22 366 -20 0 -20 -7 -20 -380 l0 -379 -57 -39 c-151 -101 -212
-123 -334 -123 -136 0 -245 45 -296 120 -52 77 -67 137 -71 292 l-4 147 37 12
c62 20 75 55 75 195 l1 120 46 35 c61 46 139 159 164 239 15 47 22 105 26 199
l6 132 138 0 c104 0 139 -3 140 -12 1 -31 5 -108 7 -165 2 -53 5 -63 20 -63 9
0 91 50 182 110 91 60 168 110 173 110 4 0 7 -49 7 -110 0 -103 1 -110 20
-110 18 0 20 8 22 113 l3 112 188 3 c179 2 187 3 187 22 0 19 -7 20 -185 20
l-185 0 0 125 c0 104 -3 127 -15 132 -9 3 -19 3 -22 -1 -4 -3 -9 -62 -12 -130
l-6 -125 -179 135 c-141 106 -181 132 -192 123 -10 -9 -14 -42 -14 -130 l0
-119 -140 0 -140 0 0 229 0 229 30 7 c44 10 88 51 95 89 10 49 -16 102 -59
123 -20 9 -36 24 -36 33 0 12 26 20 126 36 69 11 127 18 129 14 2 -3 8 -41 14
-84 12 -87 16 -95 32 -79 8 8 5 59 -12 182 -24 178 -30 204 -49 185 -8 -8 -7
-31 1 -83 6 -40 9 -75 6 -77 -2 -3 -61 -14 -129 -25 l-125 -20 -38 25 c-29 20
-50 26 -91 26 l-54 0 0 238 c0 266 -6 293 -67 322 -18 8 -33 21 -33 28 0 9 38
12 155 12 131 0 155 2 155 15 0 13 -24 15 -156 15 l-156 0 -35 30 c-24 22 -44
30 -71 30 -30 0 -53 12 -127 69 -83 64 -105 75 -105 51 0 -5 36 -37 79 -71
l79 -61 -19 -32 c-18 -29 -19 -53 -19 -339 l0 -308 -87 3 -88 3 -3 248 c-3
275 -4 281 -68 312 -19 9 -34 20 -34 25 0 16 36 12 50 -5 7 -8 25 -15 41 -15
37 0 57 36 40 69 -14 25 -62 29 -80 7 -16 -19 -48 -12 -77 15 -14 13 -41 23
-68 26 -39 5 -51 1 -80 -21 -28 -21 -46 -26 -90 -26 -43 0 -56 -3 -56 -15 0
-10 10 -15 34 -15 69 0 66 10 66 -222 l0 -210 -82 3 -83 4 -34 -53 c-19 -29
-35 -51 -37 -49 -2 2 -13 82 -25 178 -12 96 -23 176 -25 178 -16 17 -37 -28
-74 -158 -24 -83 -45 -150 -47 -147 -2 2 -13 62 -24 132 -25 166 -27 174 -43
174 -10 0 -31 -51 -62 -147 l-48 -148 -8 50 c-5 28 -14 97 -21 155 -9 79 -16
105 -26 105 -8 0 -37 -42 -64 -92 l-50 -93 -47 0 c-67 0 -170 12 -170 19 0 4
33 43 73 88 295 331 694 539 1140 593 124 16 422 8 540 -14 370 -70 698 -243
962 -511 124 -126 186 -217 270 -401 l55 -119 0 336 0 336 -63 74 c-406 475
-960 745 -1574 766 -369 13 -723 -66 -1053 -234 -336 -172 -636 -443 -821
-743 l-34 -55 -3 777 -2 777 -550 1 -550 0 0 -2800z m3001 214 c22 -11 29 -20
24 -32 -19 -45 -17 -51 24 -71 23 -12 41 -23 41 -25 0 -2 -18 -16 -40 -31 -38
-26 -43 -27 -80 -16 -51 15 -56 25 -30 58 16 21 18 29 8 32 -7 2 -24 8 -37 13
l-24 9 38 39 c22 22 41 40 43 40 1 0 17 -7 33 -16z m1044 -109 c44 -32 92 -70
108 -84 l27 -25 -127 -84 c-71 -45 -136 -87 -145 -93 -17 -9 -18 3 -18 196 l0
207 38 -29 c20 -16 73 -56 117 -88z m125 -1289 c0 -2 -7 -6 -15 -10 -8 -3 -15
-1 -15 4 0 6 7 10 15 10 8 0 15 -2 15 -4z"/>
<path d="M6471 6430 c-34 -48 -56 -135 -46 -188 14 -73 89 -182 125 -182 24 0
17 23 -18 55 -33 30 -82 119 -71 130 2 2 100 17 218 34 118 17 217 33 220 36
2 3 0 10 -6 16 -8 8 -62 4 -200 -15 -103 -14 -198 -29 -210 -31 -20 -5 -23 -1
-23 22 0 27 27 90 52 125 9 13 10 20 1 29 -8 8 -19 1 -42 -31z"/>
<path d="M4334 5827 c-2 -7 -3 -120 -2 -252 3 -232 4 -240 23 -240 19 0 20 8
23 113 l3 112 72 1 c40 1 140 4 222 8 124 5 150 9 150 21 0 13 -30 15 -222 11
l-223 -3 0 59 c0 105 -11 183 -27 183 -7 0 -16 -6 -19 -13z"/>
<path d="M4227 5753 c-4 -3 -7 -39 -7 -79 l0 -74 -237 -2 c-217 -3 -238 -5
-241 -20 -3 -17 13 -18 237 -18 l241 0 0 -62 c0 -65 10 -95 28 -84 12 7 27
283 18 321 -6 24 -25 33 -39 18z"/>
<path d="M4390 5070 c0 -5 5 -10 10 -10 6 0 10 5 10 10 0 6 -4 10 -10 10 -5 0
-10 -4 -10 -10z"/>
<path d="M4390 5040 c0 -5 5 -10 10 -10 6 0 10 5 10 10 0 6 -4 10 -10 10 -5 0
-10 -4 -10 -10z"/>
<path d="M4206 4997 c3 -10 9 -15 12 -12 3 3 0 11 -7 18 -10 9 -11 8 -5 -6z"/>
<path d="M4580 4995 c-7 -9 -8 -15 -2 -15 5 0 12 7 16 15 3 8 4 15 2 15 -2 0
-9 -7 -16 -15z"/>
<path d="M4424 4960 c16 -5 33 -7 37 -4 4 2 10 0 14 -6 3 -5 14 -10 23 -10 37
0 -7 20 -53 25 -41 3 -44 2 -21 -5z"/>
<path d="M4275 4941 c-37 -17 -99 -71 -81 -71 5 0 -2 -9 -15 -20 -13 -10 -20
-19 -16 -20 5 0 1 -7 -7 -16 -9 -8 -16 -27 -15 -42 l1 -27 8 28 c5 16 14 35
21 43 6 8 8 14 4 14 -4 0 4 11 19 25 14 13 26 29 26 34 0 6 25 22 55 36 30 15
55 28 55 31 0 7 -13 3 -55 -15z"/>
<path d="M4530 4925 c7 -8 18 -15 25 -15 16 0 55 -50 88 -115 14 -27 26 -44
27 -37 0 15 -28 84 -38 92 -4 3 -11 13 -17 23 -5 10 -23 26 -40 35 -16 9 -31
20 -33 25 -2 4 -8 7 -14 7 -6 0 -6 -6 2 -15z"/>
<path d="M4395 4900 c3 -5 14 -10 23 -10 15 0 15 2 2 10 -20 13 -33 13 -25 0z"/>
<path d="M4040 4881 c0 -10 61 -34 68 -27 2 3 -7 8 -22 12 -14 3 -26 10 -26
15 0 5 -4 9 -10 9 -5 0 -10 -4 -10 -9z"/>
<path d="M4484 4875 c11 -8 24 -15 28 -15 5 0 22 -15 38 -32 28 -31 29 -32 17
-6 -6 14 -13 25 -15 23 -2 -1 -14 8 -27 21 -13 13 -32 24 -42 24 -17 -1 -17
-2 1 -15z"/>
<path d="M4740 4880 c0 -5 -9 -10 -20 -10 -11 0 -20 -4 -20 -9 0 -6 12 -6 30
0 28 10 41 29 20 29 -5 0 -10 -4 -10 -10z"/>
<path d="M6323 4843 c-5 -10 -7 -67 -6 -128 0 -60 1 -226 2 -367 1 -252 2
-258 21 -258 20 0 20 5 18 382 -2 294 -6 382 -15 386 -7 2 -16 -5 -20 -15z"/>
<path d="M6010 4800 c-138 -4 -165 -7 -165 -20 0 -13 27 -15 180 -17 155 -1
180 -4 183 -17 3 -13 -6 -16 -40 -16 -32 0 -51 -6 -68 -22 l-23 -21 24 -20
c17 -13 35 -18 66 -15 38 3 43 1 43 -17 0 -18 -5 -20 -43 -17 -41 4 -77 -14
-77 -37 0 -13 49 -31 86 -31 24 0 34 -4 31 -12 -2 -8 -17 -12 -34 -10 -38 4
-83 -13 -83 -32 0 -22 40 -46 78 -46 20 0 31 -4 27 -10 -3 -5 -21 -10 -39 -10
-20 0 -40 -8 -50 -19 -16 -18 -16 -20 0 -36 13 -13 28 -16 61 -12 38 4 43 2
43 -15 0 -16 -5 -19 -28 -13 -38 8 -82 -10 -82 -34 0 -20 46 -45 75 -39 10 2
20 -2 22 -8 3 -8 -13 -11 -49 -10 -44 1 -53 -2 -56 -18 -5 -26 24 -46 65 -46
18 0 33 -4 33 -8 0 -10 -167 -22 -297 -22 -75 0 -84 -2 -81 -17 3 -16 22 -18
201 -20 109 -1 204 0 211 3 14 5 19 111 18 324 -1 30 1 80 4 110 10 108 10
195 1 228 -7 28 -12 32 -40 30 -18 -1 -106 -5 -197 -8z"/>
<path d="M4580 4790 c0 -3 7 -23 15 -45 12 -33 14 -36 15 -14 0 14 -7 34 -15
45 -8 10 -14 17 -15 14z"/>
<path d="M4125 4669 c9 -52 24 -94 31 -87 2 3 0 17 -6 32 -5 15 -10 40 -10 56
0 16 -5 32 -11 36 -8 5 -9 -6 -4 -37z"/>
<path d="M4670 4710 c-12 -38 -25 -122 -18 -126 4 -3 9 3 10 13 2 23 3 32 12
65 6 22 2 67 -4 48z"/>
<path d="M3993 4673 c9 -2 23 -2 30 0 6 3 -1 5 -18 5 -16 0 -22 -2 -12 -5z"/>
<path d="M4768 4673 c12 -2 30 -2 40 0 9 3 -1 5 -23 4 -22 0 -30 -2 -17 -4z"/>
<path d="M4619 4547 c-7 -19 -24 -41 -38 -50 -17 -11 -21 -17 -10 -17 18 0 49
30 49 48 0 7 4 12 9 12 13 0 22 28 11 35 -5 3 -14 -10 -21 -28z"/>
<path d="M4171 4548 c7 -16 16 -28 21 -28 5 0 7 -4 4 -9 -3 -4 12 -22 34 -40
44 -35 53 -35 17 1 -12 13 -37 41 -55 63 -27 32 -31 35 -21 13z"/>
<path d="M4085 4500 c-3 -5 -1 -10 4 -10 6 0 11 5 11 10 0 6 -2 10 -4 10 -3 0
-8 -4 -11 -10z"/>
<path d="M4707 4499 c7 -7 15 -10 18 -7 3 3 -2 9 -12 12 -14 6 -15 5 -6 -5z"/>
<path d="M4536 4448 c-9 -12 -16 -30 -16 -40 0 -13 -8 -18 -27 -18 l-28 -1 34
-18 34 -18 -22 -15 -23 -16 24 2 c22 1 24 6 26 53 0 29 6 62 12 73 14 27 5 26
-14 -2z"/>
<path d="M4260 4410 c0 -10 8 -24 18 -29 16 -10 16 -10 0 -11 -12 0 -18 -8
-18 -25 0 -17 4 -23 14 -19 8 3 12 12 10 19 -9 23 30 35 98 28 46 -4 67 -2 73
6 5 9 -15 12 -80 10 -64 -1 -89 2 -95 12 -5 7 -6 17 -4 21 3 4 0 8 -5 8 -6 0
-11 -9 -11 -20z"/>
<path d="M4325 4330 c3 -5 37 -10 75 -10 38 0 72 5 75 10 4 6 -23 10 -75 10
-52 0 -79 -4 -75 -10z"/>
<path d="M4260 4301 c0 -6 5 -13 10 -16 6 -4 8 -11 4 -16 -8 -13 31 -74 61
-93 26 -17 110 -22 119 -7 3 5 -16 8 -42 6 -53 -2 -77 7 -92 34 -9 18 -7 19
20 16 16 -2 32 1 36 7 4 7 -9 9 -40 7 -39 -4 -46 -1 -46 13 0 15 10 18 63 19
34 0 85 1 113 2 45 2 50 0 46 -18 -3 -17 -10 -20 -50 -16 -26 2 -43 -1 -39 -5
5 -5 19 -9 30 -9 16 0 22 -6 21 -22 -1 -46 43 13 57 75 5 26 5 32 -4 23 -14
-14 -247 -15 -247 -1 0 6 -4 10 -10 10 -5 0 -10 -4 -10 -9z"/>
<path d="M6115 2508 c-91 -32 -147 -123 -149 -241 -2 -177 80 -277 229 -277
102 0 185 57 213 145 l10 35 -54 0 c-48 0 -56 -3 -64 -24 -32 -86 -163 -87
-204 -1 -58 122 -2 285 98 285 50 0 91 -23 106 -60 11 -28 16 -30 61 -30 44 0
49 2 49 22 0 12 -11 40 -25 64 -46 78 -172 116 -270 82z"/>
<path d="M4970 2255 l0 -255 55 0 55 0 0 115 0 115 100 0 100 0 0 -115 0 -115
50 0 50 0 0 255 0 255 -50 0 -50 0 0 -95 0 -95 -100 0 -100 0 0 95 0 95 -55 0
-55 0 0 -255z"/>
<path d="M5537 2262 c-48 -136 -87 -250 -87 -254 0 -5 24 -8 53 -8 l53 0 15
48 15 47 96 3 96 3 17 -51 17 -50 54 0 c30 0 54 3 54 8 0 4 -39 118 -86 255
l-87 247 -61 0 -61 0 -88 -248z m151 -70 c-33 -2 -62 -2 -64 0 -1 2 11 48 28
103 l32 100 32 -100 33 -100 -61 -3z"/>
<path d="M6500 2255 l0 -255 50 0 50 0 0 83 c1 74 3 85 27 112 25 29 26 29 39
10 7 -11 42 -61 77 -110 l63 -90 67 -3 c37 -2 67 0 67 2 0 3 -37 56 -83 118
-46 62 -93 128 -106 146 l-24 34 104 104 104 104 -70 -1 -70 -1 -90 -98 c-49
-54 -93 -99 -97 -99 -5 -1 -8 44 -8 99 l0 100 -50 0 -50 0 0 -255z"/>
<path d="M7000 2255 l0 -255 195 0 195 0 0 45 0 45 -140 0 -140 0 0 65 0 65
120 0 120 0 0 45 0 45 -120 0 -120 0 0 55 0 55 135 0 136 0 -3 43 -3 42 -188
3 -187 2 0 -255z"/>
<path d="M7470 2255 l0 -255 195 0 195 0 0 45 0 45 -140 0 -140 0 0 65 0 65
120 0 120 0 0 45 0 45 -120 0 -120 0 0 55 0 55 136 0 135 0 -3 43 -3 42 -187
3 -188 2 0 -255z"/>
<path d="M7940 2255 l0 -255 190 0 190 0 0 45 0 45 -140 0 -140 0 0 65 0 65
125 0 125 0 0 45 0 45 -125 0 -125 0 0 55 0 55 135 0 135 0 0 45 0 45 -185 0
-185 0 0 -255z"/>
<path d="M8390 2465 c0 -43 1 -45 30 -45 37 0 38 -10 5 -48 -40 -48 -25 -72
21 -34 33 26 44 56 44 116 l0 56 -50 0 -50 0 0 -45z"/>
<path d="M8654 2486 c-42 -19 -76 -69 -82 -121 l-4 -43 48 1 c47 2 49 3 52 34
9 90 136 79 136 -12 0 -40 -3 -43 -152 -173 -50 -43 -64 -62 -77 -104 -8 -29
-15 -55 -15 -60 0 -4 79 -8 176 -8 l175 0 -3 43 -3 42 -110 5 -110 5 83 61
c110 82 125 103 130 178 3 51 0 67 -20 96 -13 19 -39 43 -58 52 -42 21 -122
23 -166 4z"/>
<path d="M9061 2482 c-44 -22 -70 -57 -78 -105 l-6 -37 46 0 c41 0 45 3 52 27
10 41 24 53 61 53 42 0 64 -22 64 -65 0 -39 -29 -65 -72 -65 -25 0 -28 -4 -28
-34 0 -31 2 -34 40 -39 56 -7 70 -22 70 -72 0 -52 -23 -75 -73 -75 -38 0 -67
27 -67 62 0 15 -9 18 -50 18 -41 0 -50 -3 -50 -18 0 -36 45 -105 80 -124 42
-22 127 -24 173 -4 95 40 125 172 55 238 l-28 26 25 28 c49 53 24 153 -48 187
-46 22 -123 22 -166 -1z"/>
</g>
</svg>
